<svg version="1.1" xmlns="http://www.w3.org/2000/svg" style="display: block;" viewBox="0 0 2048 2048" width="640" height="640" preserveAspectRatio="none">
<path transform="translate(0,0)" fill="rgb(107,167,254)" d="M 1439.44 5.41674 C 1449.15 4.50513 1462.26 5.1811 1472.1 5.63969 C 1535.17 8.57831 1590.19 27.6901 1642.56 62.7018 C 1715.51 111.854 1765.84 188.068 1782.4 274.454 C 1798.86 359.299 1782.41 455.114 1733.11 526.693 C 1689.87 589.486 1624.58 645.3 1548.05 659.58 C 1549.87 713.403 1548.28 776.997 1548.28 831.433 L 1548.29 1200.2 C 1548.3 1262.78 1546.88 1332.21 1548.61 1394.2 C 1553.4 1395.21 1558.22 1396.73 1562.91 1398.17 C 1645.5 1423.54 1711.87 1484.32 1751.44 1560.4 C 1791.86 1639.42 1799.79 1731.11 1773.54 1815.9 C 1747.36 1899.03 1684.51 1969.47 1607.1 2009.48 C 1482.13 2074.06 1319.32 2050.64 1218.38 1951.66 C 1127.45 1862.5 1094.57 1738.11 1133.96 1615.77 C 1138.38 1600.93 1144.5 1587.59 1151.81 1574.01 C 1140.51 1566.41 1126.3 1554.92 1115.31 1546.34 C 1086.82 1524.09 1058.86 1501.1 1030.43 1478.72 L 772.709 1274.44 C 737.506 1303.41 684.02 1323.8 638.567 1329.28 C 546.381 1340.65 463.026 1321.2 388.402 1265.54 C 243.452 1157.44 215.112 947.802 326.881 805.417 C 382.321 734.792 454.643 690.281 543.906 679.269 C 628.14 668.429 713.246 691.296 780.703 742.895 C 790.451 733.21 815.462 715.443 827.325 706.222 L 946.49 614.863 L 1058.64 528.42 C 1084.76 508.076 1114.78 483.174 1142.57 466.281 C 1127.93 440.285 1120.22 391.425 1118.17 361.967 C 1104.93 172.201 1251.04 15.0766 1439.44 5.41674 z M 1117.14 1313.06 C 1153.35 1340.26 1189.11 1368.06 1224.39 1396.46 C 1237.58 1406.92 1265.62 1427.85 1275.1 1439.32 C 1297.2 1418.19 1337.25 1401.72 1366.71 1395.46 C 1365.46 1377.05 1365.83 1355.82 1365.75 1337.19 C 1365.53 1305.03 1365.55 1272.87 1365.82 1240.72 L 1365.83 1024.8 L 1365.87 786.846 L 1365.86 703.523 C 1365.89 690.171 1365.45 672.801 1366.26 659.839 C 1331.97 654.416 1305.88 641.266 1277.08 622.123 C 1272.51 619.08 1258.8 608.276 1255.73 606.501 C 1248.66 614.755 1229.92 628.649 1220.43 636.093 L 1153.56 688.273 L 1012.55 798.805 C 986.373 819.757 960.02 840.482 933.489 860.977 C 921.826 870.116 907.575 882.269 895.799 890.695 C 903.395 905.813 910.019 931.877 912.702 948.213 C 922.19 1003.57 917.809 1060.41 899.949 1113.66 C 897.172 1121.9 894.193 1130.08 891.016 1138.18 C 957.133 1185.07 1020.27 1238.64 1084.95 1287.64 C 1095.55 1295.67 1107.08 1304.41 1117.14 1313.06 z M 1463.78 495.682 C 1519.74 491.263 1569 457.082 1592.72 406.206 C 1616.45 355.331 1610.97 295.627 1578.38 249.916 C 1545.8 204.206 1491.15 179.557 1435.31 185.393 C 1350.5 194.258 1288.56 269.665 1296.35 354.59 C 1304.14 439.514 1378.76 502.396 1463.78 495.682 z M 1465.87 1869.12 C 1551.06 1861.17 1613.64 1785.6 1605.59 1700.42 C 1597.53 1615.24 1521.89 1552.75 1436.72 1560.91 C 1351.69 1569.06 1289.33 1644.53 1297.38 1729.57 C 1305.42 1814.61 1380.82 1877.06 1465.87 1869.12 z M 603.625 1153.39 C 686.07 1144.53 745.651 1070.4 736.581 987.981 C 727.51 905.559 653.236 846.166 570.836 855.446 C 488.732 864.693 429.599 938.643 438.637 1020.77 C 447.676 1102.9 521.475 1162.22 603.625 1153.39 z"/>
</svg>